HIERARCHY
ROOT Hips
{
  OFFSET 0.000000 0.000000 0.000000
  CHANNELS 6 Xposition Yposition Zposition Xrotation Yrotation Zrotation
  JOINT Spine
  {
    OFFSET -0.098318 21.401485 -6.293631
    CHANNELS 3 Xrotation Yrotation Zrotation
    JOINT Chest
    {
      OFFSET -0.098318 21.401485 -6.293631
      CHANNELS 3 Xrotation Yrotation Zrotation
      JOINT Neck
      {
        OFFSET -0.580468 8.207782 -4.253018
        CHANNELS 3 Xrotation Yrotation Zrotation
        JOINT Head
        {
          OFFSET -0.562899 7.168579 -8.345224
          CHANNELS 3 Xrotation Yrotation Zrotation
          End Site
          {
            OFFSET -0.168870 2.150574 -2.503567
          }
        }
      }
      JOINT LeftShoulder
      {
        OFFSET 15.962312 -1.224650 -0.671920
        CHANNELS 3 Xrotation Yrotation Zrotation
        JOINT LeftArm
        {
          OFFSET 3.898732 -20.606852 -14.288570
          CHANNELS 3 Xrotation Yrotation Zrotation
          JOINT LeftForeArm
          {
            OFFSET -12.342943 8.950010 -19.437981
            CHANNELS 3 Xrotation Yrotation Zrotation
            JOINT LeftHand
            {
              OFFSET -3.038787 2.639320 -1.974434
              CHANNELS 3 Xrotation Yrotation Zrotation
              End Site
              {
                OFFSET -0.911636 0.791796 -0.592330
              }
            }
          }
        }
      }
      JOINT RightShoulder
      {
        OFFSET -15.962312 1.224650 0.671920
        CHANNELS 3 Xrotation Yrotation Zrotation
        JOINT RightArm
        {
          OFFSET -4.099335 -19.443265 -13.234083
          CHANNELS 3 Xrotation Yrotation Zrotation
          JOINT RightForeArm
          {
            OFFSET 9.166595 9.388715 -23.176992
            CHANNELS 3 Xrotation Yrotation Zrotation
            JOINT RightHand
            {
              OFFSET 2.860103 2.623748 -2.679938
              CHANNELS 3 Xrotation Yrotation Zrotation
              End Site
              {
                OFFSET 0.858031 0.787124 -0.803981
              }
            }
          }
        }
      }
    }
  }
  JOINT LeftUpLeg
  {
    OFFSET 11.237313 0.048304 -1.496415
    CHANNELS 3 Xrotation Yrotation Zrotation
    JOINT LeftLeg
    {
      OFFSET 7.821200 -40.343860 -7.802128
      CHANNELS 3 Xrotation Yrotation Zrotation
      JOINT LeftFoot
      {
        OFFSET 17.362362 -39.315871 4.251217
        CHANNELS 3 Xrotation Yrotation Zrotation
        End Site
        {
          OFFSET 5.208708 -11.794761 1.275365
        }
      }
    }
  }
  JOINT RightUpLeg
  {
    OFFSET -11.237313 -0.048304 1.496415
    CHANNELS 3 Xrotation Yrotation Zrotation
    JOINT RightLeg
    {
      OFFSET -9.078132 -36.758209 -0.218620
      CHANNELS 3 Xrotation Yrotation Zrotation
      JOINT RightFoot
      {
        OFFSET -1.443762 -37.160986 11.934157
        CHANNELS 3 Xrotation Yrotation Zrotation
        End Site
        {
          OFFSET -0.433129 -11.148296 3.580247
        }
      }
    }
  }
}
MOTION
Frames: 6
Frame Time: 0.083333
-0.004795 59.969677 28.104323 8.869837 0.486216 1.563733 8.869837 0.486216 1.563733 0.417559 -1.822044 -3.921063 1.432006 -6.490623 -6.619632 5.000000 0.000000 0.000000 -38.262142 -7.747219 4.004859 54.097000 -2.162982 -13.409726 0.000000 0.000000 0.000000 0.000000 0.000000 0.000000 -4.281359 -27.318036 41.650471 19.168344 -7.728935 -4.943086 98.406674 -1.204633 -84.624693 0.000000 0.000000 0.000000 10.956470 -1.823096 13.855964 7.390746 3.192922 -1.670949 0.000000 0.000000 0.000000 0.029560 -0.310484 -4.198922 -21.428914 -6.815341 -13.864760 0.000000 0.000000 0.000000
-0.007447 59.968040 27.345637 16.829735 -0.066872 -0.948089 16.829735 -0.066872 -0.948089 3.639569 -2.359155 -6.628452 7.132683 -8.733832 -11.798344 5.000000 0.000000 0.000000 -64.285526 -9.551481 0.669534 99.584697 -2.861907 -24.548670 0.000000 0.000000 0.000000 0.000000 0.000000 0.000000 -17.938120 -40.276430 71.032619 46.660508 -10.737136 -9.177896 0.000000 0.000000 0.000000 0.000000 0.000000 0.000000 8.861552 -2.654017 17.094326 13.237838 5.823464 -2.525160 0.000000 0.000000 0.000000 2.778343 -1.007430 10.652727 -21.953634 -16.632817 -31.849696 0.000000 0.000000 0.000000
-0.011014 59.968203 25.451005 15.708063 -0.263588 -2.220391 15.708063 -0.263588 -2.220391 5.166352 -2.523483 -8.181050 10.343821 -9.533480 -15.132593 5.000000 0.000000 0.000000 -40.872805 -7.518371 2.481668 64.003208 -11.842479 -17.916778 29.410599 16.366353 2.437610 0.000000 0.000000 0.000000 -20.440532 -21.696822 50.182815 64.270619 -9.342098 -9.036973 15.565903 10.605508 24.363571 0.000000 0.000000 0.000000 2.537580 -4.169508 22.044024 12.502127 5.497984 -3.296221 0.000000 0.000000 0.000000 1.501285 -0.582778 11.175062 -20.877827 -19.084550 -36.745792 0.000000 0.000000 0.000000
-0.008031 60.000000 23.111352 15.130612 -0.322819 -2.553936 15.130612 -0.322819 -2.553936 5.194634 -2.494909 -8.183654 9.374186 -9.702547 -14.733688 5.000000 0.000000 0.000000 -17.832890 -7.247785 8.159699 1.561837 -8.973908 -3.716782 0.000000 0.000000 0.000000 0.000000 0.000000 0.000000 -13.847942 -9.082176 22.509991 36.532770 -6.127199 -3.402820 -18.113227 -17.370053 -33.349917 0.000000 0.000000 0.000000 3.802809 -3.842061 20.587479 18.379048 8.210574 -1.569485 0.000000 0.000000 0.000000 2.180381 -0.750529 7.016727 -22.646393 -16.620121 -31.167722 0.000000 0.000000 0.000000
-0.002081 60.000000 20.616848 12.238732 -0.314719 -2.331619 12.238732 -0.314719 -2.331619 2.890900 -2.513047 -6.660741 4.886354 -8.705541 -10.786294 5.000000 0.000000 0.000000 -2.872760 -8.588851 12.457146 -4.137143 -6.102763 -1.791386 0.000000 0.000000 0.000000 0.000000 0.000000 0.000000 -9.437157 -1.178654 5.177973 5.803441 -2.502041 -0.812380 0.000000 0.000000 0.000000 0.000000 0.000000 0.000000 5.089423 -2.991656 16.770069 13.608878 6.050371 0.950720 0.000000 0.000000 0.000000 1.336649 -0.396477 0.272891 -21.212934 -11.954464 -23.214856 0.000000 0.000000 0.000000
-0.000312 59.976387 18.546979 6.379986 0.049030 -0.095587 6.379986 0.049030 -0.095587 -1.871877 -2.287663 -4.130159 -2.179220 -5.750028 -4.737547 5.000000 0.000000 0.000000 -0.804106 -9.952280 14.712367 -8.135160 -4.315542 -0.580717 0.000000 0.000000 0.000000 0.000000 0.000000 0.000000 -11.027612 2.494248 -0.550182 -0.720721 -0.330080 -0.253646 0.000000 0.000000 0.000000 0.000000 0.000000 0.000000 3.353004 -2.145179 12.524711 3.916578 1.976927 3.372903 0.000000 0.000000 0.000000 0.579606 -0.023283 -10.149711 -17.211691 -5.017543 -11.402905 0.000000 0.000000 0.000000
